<?xml version="1.0" encoding="utf-8"?>
<!-- Generator: Adobe Illustrator 28.2.0, SVG Export Plug-In . SVG Version: 6.00 Build 0)  -->
<svg version="1.0" id="Layer_1" xmlns="http://www.w3.org/2000/svg" xmlns:xlink="http://www.w3.org/1999/xlink" x="0px" y="0px"
	 viewBox="0 0 150 54" style="enable-background:new 0 0 150 54;" xml:space="preserve">
<style type="text/css">
	.st0{fill:#398A41;}
	.st1{fill:#F3ED6A;}
	.st2{fill:#EE6947;}
	.st3{fill:#FFFFFF;}
	.st4{fill:#F99B1C;}
</style>
<path class="st0" d="M16.66,37.14c-0.4-0.02-0.34-0.02-0.74-0.04c-1.1,0.04-2.11,0.08-3.22,0.22c-1.1,0.04-2.09-0.22-2.96-0.86
	c-0.29-0.22-0.47-0.63-0.64-1.04c-0.09-0.21,0.02-0.4,0.13-0.59c0.54-0.67,1.26-1.03,2.07-1.29c1.42-0.32,2.93-0.54,4.44-0.56
	c1.1-0.04,2.21-0.18,3.41-0.11c1.3,0.07,1.88,0.5,2.31,1.63c0.27,0.62,0.43,1.23,0.3,1.82c-0.25,0.89-0.5,1.88-0.85,2.76
	c-0.47,1.28-0.61,1.54-0.65,1.8c-0.03,0.6-0.09,1.24-0.2,1.58c0,0,0.01,0,0.01,0s0.02,0.72-0.51,1.66s-3.47,0.18-3.4-0.59
	c0.07-0.76,0.87-1.95,0.07-2.22c-0.3-0.02-0.83,0.07-1.13,0.15c-1.51,0.22-2.12,0.33-2.93,0.43c-0.64,0.08-2.31,0.03-3.5-0.16
	c-1.58-0.24-3.55-1.69-3.55-1.69s-0.79-0.6-1.15-1.06c-0.36-0.46-1.26-2.01-1.19-3.21c0.04-0.7,0.07-1.3,0.31-1.99
	c0.12-0.39,0.44-0.78,0.66-1.07c0.11-0.19,0.33-0.48,0.54-0.67c0.85-0.85,1.4-1.83,2.44-2.47c0.73-0.56,1.26-1.13,2-1.69
	c1.36-1.03,2.82-2.05,4.55-2.65c0.71-0.16,1.41-0.22,2.02-0.39c0.1,0.01,0.2,0.01,0.2,0.01c0.5-0.07,0.91-0.15,1.29,0.17
	c0.39,0.22,0.67,0.54,0.95,0.85c0.66,0.74,0.7,2.18,0.76,2.55s0.06,0.48,0.06,0.8c0,0.33-1.1,1.11-1.74,0.7
	c-0.25-0.15-0.95-0.95-1.43-1.38c-0.19-0.21-0.38-0.32-0.69-0.24c-0.21,0.09-0.51,0.17-0.72,0.26c-0.73,0.46-1.55,0.82-2.28,1.38
	c-0.83,0.55-1.67,1.21-2.61,1.86c-1.04,0.74-1.79,1.6-2.55,2.66c-0.11,0.19-0.79,1.21-0.29,2.53c0.55,0.83,0.99,1.12,1.98,1.37
	c1.28,0.47,2.67,0.65,4.07,0.63c0.9,0.05,1.81-0.1,2.62-0.36c0.61-0.17,1.14-0.64,1.56-1.12C17,37.36,16.65,37.24,16.66,37.14z"/>
<path class="st0" d="M128.26,35.2c1,0.7,2.1,1.3,3,2.1c0.8,0.6,1.5,1.3,1.4,2.4c-0.1,0.6-0.4,1.2-0.9,1.5c-0.4,0.3-1,0.5-1.6,0.6
	s-1.1,0-1.6-0.4c-0.2-0.2-0.5-0.3-0.7-0.4c-0.2-0.2-0.4-0.4-0.6-0.6c-0.1-0.1-0.3-0.3-0.4-0.4c-1-0.7-2-1.4-3-2.2
	c-0.3-0.2-0.5-0.5-0.8-0.7c-0.1-0.1-0.2-0.1-0.3-0.2c-0.1,0.1-0.2,0.2-0.2,0.3c0,0.7,0,1.5,0.1,2.2c0.1,0.8,0.1,1.5-0.4,2.2
	c-0.1,0.1-0.1,0.3-0.1,0.5c0,0.3-0.1,0.4-0.4,0.4c-0.1,0-0.2,0-0.3,0.1c-0.8,0.4-1.4,0-2-0.3c-0.2-0.1-0.3-0.2-0.5-0.3
	c-0.1-0.1-0.2-0.2-0.2-0.3c-0.1-0.4-0.2-0.9-0.3-1.3c-0.1-0.3-0.1-0.6-0.1-0.9c0-1.3,0-2.7,0-4c0-0.5-0.1-1.1-0.2-1.6
	s0.2-0.9,0.4-1.4c0.2-0.3,0.5-0.5,0.9-0.5c0.3,0,0.5-0.2,0.5-0.5c0-0.7,0.1-1.4,0.2-2.1c0-0.1-0.1-0.2-0.2-0.3
	c-0.9-0.6-1.2-1.3-0.8-2.4c0.2-0.6,0.6-1.2,1-1.8c0.1-0.2,0.3-0.3,0.6-0.4c0.5-0.1,1-0.3,1.5-0.6c1.6-0.7,3.2-0.5,4.7,0.1
	c0.8,0.4,1.6,0.8,2.4,1.2c0.9,0.4,1.1,1.2,1.1,2c0,1.4-0.1,2.9-0.2,4.3c0,0.4-0.3,0.7-0.4,1.1v0.1
	C129.66,33.8,129.06,34.6,128.26,35.2z M123.86,32.3c1.2-0.4,1.8-1.3,2.3-2.2c0.1-0.2,0-0.4-0.2-0.6c-0.4-0.2-0.5-0.5-0.6-0.8
	c0-0.2-0.1-0.5-0.1-0.7s-0.2-0.3-0.4-0.2c-0.3,0.2-0.6,0.5-0.6,0.8C124.16,29.9,124.06,31.1,123.86,32.3z M131.86,39.1
	c0-0.4-0.6-1.1-1-1.4c-0.5-0.3-0.9-0.6-1.3-0.9c-0.1-0.1-0.2-0.2-0.3-0.3c0,0,0,0-0.1,0.1C129.86,37.5,130.86,38.3,131.86,39.1z
	 M123.26,31.9h0.1c0-0.1,0.1-0.3,0.1-0.4c0.1-0.6,0.1-1.2,0.2-1.8c0-0.1,0-0.2,0-0.3c0-0.1-0.1-0.2-0.2-0.2c0,0.1-0.1,0.2-0.1,0.2
	c0,0.6-0.1,1.2-0.1,1.8C123.26,31.4,123.26,31.6,123.26,31.9z M123.16,24.3c0.6,0.4,1.1,0.2,1.7-0.1
	C124.36,24,123.46,24.1,123.16,24.3z M122.16,41c0.3-0.4,0.3-1.4,0-1.7C122.16,39.8,122.16,40.4,122.16,41z M127.66,34.9
	c-0.4-0.2-0.7-0.2-1,0c-0.1,0-0.1,0.2-0.2,0.3c0.1,0,0.2,0.1,0.3,0.1C127.06,35.2,127.36,35.1,127.66,34.9z M119.76,27.8
	c-0.1,0.4,0.3,0.8,0.7,0.9C120.46,28.3,120.36,28.1,119.76,27.8z M119.36,32.6v0.1c0.1,0,0.3,0.1,0.4,0.1s0.2-0.1,0.2-0.2
	c0,0-0.1-0.2-0.1-0.1C119.66,32.5,119.56,32.6,119.36,32.6z M127.26,26.1c0,0,0.1,0,0.1-0.1s-0.1-0.3-0.2-0.3s-0.3,0-0.4,0.1v0.1
	C126.96,26,127.16,26.1,127.26,26.1z M130.86,41C130.86,41,130.86,41.1,130.86,41c0.2,0,0.4-0.1,0.6-0.2c0,0,0-0.1-0.1-0.1
	C131.16,40.8,131.06,40.9,130.86,41z"/>
<path class="st0" d="M115.86,29.69c-0.1,1.37-0.2,2.63-0.2,4c0,0.74-0.2,1.47-0.2,2.21c-0.1,0.74-0.1,1.47-0.1,2.21
	c-0.1,0.74-0.3,1.58-0.8,2.21c-0.4,0.63-1.2,1.05-1.9,1.37c-0.6,0.21-1.2,0.42-1.8,0.42c-0.4,0-0.8,0.11-1.2,0.21
	c-0.7,0.21-1.5,0.21-2.2,0.11c-0.5,0-1.1,0-1.6-0.11c-0.8,0-1.5,0-2.3-0.11c-0.1,0-0.3-0.11-0.4-0.11c-0.4-0.21-0.6-1.16-0.5-1.47
	c0.1-0.21,0.1-0.42,0.1-0.74c0.2-1.26,0.3-2.53,0.5-3.69c0-0.32,0-0.74,0-1.05c0-0.11,0-0.11,0-0.21c0.2-2.21,0.4-4.42,0.6-6.63
	c0.1-1.16,0.2-2.32,0.4-3.47c0-0.11,0.2-0.21,0.3-0.21c1,0,2-0.32,3-0.11c0.3,0.11,0.5,0.21,0.7,0.42l0,0
	c0.8,1.16,0.8,0.95,0.5,2.21c-0.3,1.37-0.3,2.74-0.5,4.11c-0.1,1.05-0.3,2.11-0.4,3.26c-0.1,0.84,0,1.68,0,2.42
	c0,0.21,0.1,0.42,0.4,0.32c0.2,0,0.4,0.11,0.6,0c0.4-0.11,0.8-0.32,0.8-0.74c0.1-0.84,0.3-1.68,0.4-2.53c0.1-1.16,0.2-2.42,0.4-3.58
	c0.2-1.37,0.4-2.84,0.5-4.21c0.1-0.42,0.1-0.84,0.2-1.26c0.3-0.84,0.7-1.05,1.6-1.05c0.4,0,0.9,0,1.3,0c1.1,0,1.8,0.63,1.8,1.68
	C115.86,27.06,115.86,28.43,115.86,29.69L115.86,29.69z M112.56,24.53L112.56,24.53c0.1,0.11,0.2,0.11,0.3,0.21
	c0.4,0.21,0.9,0.32,1.3,0.53c0.4,0.11,0.7,0.42,0.8,0.84c0.1,0.32,0.1,0.53,0.2,0.84c0,0.11,0.1,0.11,0.1,0.21h0.1
	c-0.1-0.53-0.1-1.05-0.2-1.58c-0.1-0.42-0.5-0.74-1-0.84C113.66,24.53,113.16,24.53,112.56,24.53z M106.16,24.96
	c0.6,0.21,1.2,0.42,1.8,0.63C107.76,24.96,106.86,24.75,106.16,24.96z M105.16,25.17v-0.11c-0.2,0-0.3,0-0.6-0.11
	c0.1,0.11,0.1,0.32,0.2,0.32C104.86,25.27,104.96,25.17,105.16,25.17z M115.26,32.75h-0.1c0,0.21-0.1,0.42-0.1,0.74h0.1
	C115.16,33.27,115.16,33.06,115.26,32.75z"/>
<path class="st0" d="M72.82,33.4c0.07-0.7,0.15-1.31,0.22-1.91c0.15-1.21,0.2-2.41,0.36-3.62c-0.02-0.4-0.03-0.8-0.05-1.3
	c-0.01-0.2-0.02-0.4-0.02-0.6c0.08-0.4,0.28-0.61,0.77-0.73c0.3-0.01,0.6-0.02,0.8-0.03c0.9,0.06,1.33,0.65,1.55,1.34
	c0.23,0.79,0.36,1.59,0.5,2.38c0.02,0.4-0.07,0.8-0.05,1.2c0.06,1.4,0.01,2.7,0.06,4.1c-0.06,1.1-0.11,2.21-0.07,3.31
	c0.02,0.6-0.06,1.1,0.27,1.69c0,0.1,0,0.1,0.01,0.2c-0.17,0.71-0.04,1.5-0.61,2.23c-0.19,0.31-0.38,0.52-0.78,0.53
	c-0.1,0-0.2,0.01-0.3,0.11c-0.39,0.32-0.79,0.23-1.2,0.05c-0.31-0.19-0.71-0.27-1.02-0.46c-0.2-0.09-0.31-0.29-0.42-0.38
	c-0.12-0.4-0.13-0.8-0.15-1.2c-0.01-0.3-0.02-0.5-0.42-0.58c-0.1,0-0.31-0.19-0.31-0.29c-0.05-1.2-0.89-2.17-1.62-3.04
	c-0.31-0.29-0.63-0.68-0.94-0.96c-0.21-0.19-0.42-0.38-0.82-0.37c-0.07,0.8-0.24,1.61-0.31,2.31c-0.07,0.8-0.04,1.5-0.11,2.31
	c-0.08,0.6-0.25,1.21-0.43,1.82c-0.08,0.4-0.48,0.52-0.98,0.54c-0.7,0.03-1.4-0.04-2.11-0.32c-0.1-0.1-0.31-0.19-0.41-0.28
	c-0.33-0.69-0.56-1.38-0.48-2.08c0.15-1.31,0.3-2.61,0.44-3.92c0.07-0.7,0.04-1.4,0.02-2.1c0.05-1.2,0.1-2.41,0.06-3.61
	c-0.03-0.7,0.04-1.4,0.02-2.1c-0.01-0.3,0.08-0.6,0.16-1.01c0-0.1,0-0.1,0.09-0.2c0.4-0.12,0.38-0.42,0.57-0.72
	c0.38-0.42,1.08-0.64,1.68-0.57c0.3,0.09,0.6,0.08,0.81,0.27c0.61,0.18,1.03,0.66,1.15,1.26c0.24,1.09,0.38,2.09,0.63,3.18
	c0.13,0.8,0.76,1.47,1.38,2.05c0.1,0.1,0.21,0.19,0.31,0.29C71.99,32.64,72.31,33.02,72.82,33.4z M65.03,28.61
	c0.08-0.5,0.16-0.91,0.25-1.31C64.98,27.41,64.91,28.11,65.03,28.61z M75.44,26.09c-0.11-0.3-0.82-0.47-1.21-0.25
	C74.63,25.93,75.03,26.01,75.44,26.09z M67.93,26.09c-0.31-0.29-1.02-0.46-1.31-0.35C67.12,25.92,67.53,26.01,67.93,26.09z
	 M69.94,31.32c-0.18,0.51,0.02,0.6,0.42,0.58C70.25,31.6,70.05,31.51,69.94,31.32z M69.07,34.65c-0.22-0.39-0.52-0.48-0.71-0.17
	C68.67,34.57,68.87,34.66,69.07,34.65z M70.83,36.18c-0.02-0.4-0.12-0.5-0.42-0.48C70.62,35.89,70.73,35.99,70.83,36.18z"/>
<path class="st0" d="M27.26,37.2c-0.2,0.5-0.3,0.9-0.2,1.4c0.1,0.8,0.2,1.7,0.2,2.5c0,0.9-0.6,1.4-1.7,1.4c-0.1,0-0.1,0-0.2,0
	c-0.4,0-0.9,0-1.2-0.3c-0.5-0.5-0.9-1-0.7-1.7c0.2-0.7,0.1-1.4,0.1-2.2c0-0.3-0.1-0.7,0-1c0.1-0.4-0.1-0.8-0.4-1.2
	c-0.8-0.9-0.7-1.9-0.1-2.9c0.1-0.2,0.4-0.4,0.7-0.4c0.4-0.1,0.6-0.3,0.7-0.6c0.2-0.7,0.3-1.4,0.5-2.1c0.1-0.3-0.1-0.4-0.2-0.7
	c-0.2-0.3-0.4-0.6-0.6-0.9c-0.1-0.1-0.1-0.2-0.2-0.3c-0.3-0.2-0.3-0.5-0.2-0.7c0.1-0.2,0.1-0.4,0.2-0.7c0.1-0.5,0.3-0.8,0.7-1.2
	c0.2-0.2,0.5-0.3,0.8-0.2c0.1,0,0.3,0,0.4,0c0.9-0.4,1.9-0.4,2.9-0.3c0.5,0.1,1,0.1,1.6,0.2s1.1,0.3,1.5,0.5c0.5,0.3,1,0.6,1.3,1
	c0.6,1.1,1.2,2.3,1.1,3.6c0,0.2,0.1,0.5,0.1,0.7c0,0.9-0.2,1.7-0.8,2.5c-0.2,0.3-0.4,0.6-0.6,0.9c-0.2,0.3-0.3,0.6-0.5,0.9
	c0.4,0.2,0.8,0.5,1.1,0.7c0.7,0.5,1.3,1,2,1.5c0.1,0.1,0.3,0.2,0.4,0.3c0.5,0.4,0.6,0.9,0.4,1.5c-0.2,0.6-0.4,1.1-0.9,1.6
	c-0.2,0.2-0.3,0.5-0.5,0.7c-0.1,0.1-0.3,0.2-0.4,0.2c-0.9-0.1-1.7-0.3-2.5-0.4c-0.3-0.1-0.2-0.3-0.1-0.4c0.2-0.2,0.1-0.3-0.1-0.5
	c-0.4-0.3-0.8-0.7-1.2-1c-1-0.8-2.1-1.6-3.1-2.3C27.36,37.3,27.36,37.2,27.26,37.2z M27.86,32.9c1-0.4,2.3-1.6,2.3-2.7
	c0-0.5-0.3-1-0.9-1.1c-0.2-0.1-0.3,0-0.4,0.2c-0.1,0.4-0.2,0.7-0.3,1.1c-0.1,0.3,0.1,0.6-0.3,0.8v0.1
	C28.16,31.8,28.06,32.3,27.86,32.9z M30.26,38.9C30.36,38.9,30.36,38.9,30.26,38.9c-0.8-0.9-1.8-1.7-3-2.2
	C28.26,37.4,29.26,38.2,30.26,38.9z M23.86,36.2c0-0.5-0.1-0.7-0.6-0.8C23.46,35.7,23.66,35.9,23.86,36.2z M31.56,39.9
	C31.46,39.9,31.46,39.9,31.56,39.9c0.1,0.2,0.3,0.4,0.5,0.5l0.1-0.1C31.86,40.1,31.66,40,31.56,39.9z"/>
<path class="st0" d="M55.56,38.24c0.4,0,0.8,0,1.3-0.1c0.3,0,0.6-0.21,0.8-0.31c0.6-0.31,1-0.21,1.3,0.31
	c0.4,0.83,0.6,1.76,0.7,2.59c0,0.41-0.1,0.72-0.6,0.93c-1.8,0.93-3.7,1.03-5.6,0.62c-0.4-0.1-0.9-0.21-1.3-0.31
	c-1.2-0.41-1.8-1.35-2.3-2.28c0,0,0-0.1-0.1-0.1c-0.2-0.83-0.6-1.55-0.7-2.38c-0.1-0.72,0.1-1.45,0.2-2.17
	c0.1-0.62,0.4-1.24,0.6-1.86c0.3-1.03,0.7-2.07,1-3.1c0.2-0.62,0.3-1.24,0.8-1.76c0.1-0.1,0.1-0.31,0.2-0.41
	c0.2-0.21,0.3-0.41,0.5-0.62c0.5-0.41,1.1-0.62,1.8-0.72c0.9-0.21,1.7-0.41,2.6-0.52c1-0.21,2.1-0.41,3.1-0.52
	c0.6-0.1,1.2-0.1,1.8-0.1c0.4,0,0.7,0.1,1,0.41c0.3,0.31,0.7,0.62,0.9,0.93c0.4,0.62,0.3,1.35,0.1,2.07c-0.1,0.21-0.3,0.41-0.6,0.41
	c-0.9,0.31-1.8,0.72-2.7,0.93c-0.9,0.21-1.9,0.31-2.8,0.41c-0.1,0-0.3-0.1-0.4-0.1c-0.3-0.21-0.6-0.1-1,0
	c-0.7,0.31-0.8,0.83-1.2,1.35c-0.2,0.21-0.1,0.31,0.2,0.31c0.7-0.1,1.4-0.21,2-0.21c0.1,0,0.2-0.1,0.3-0.21
	c0.2-0.31,0.3-0.41,0.8-0.31c0.3,0.1,0.7,0.1,1,0.1c0.7-0.1,1.3,0.1,1.5,0.72c0,0.1,0.1,0.21,0.2,0.31c0.3,0.21,0.5,0.52,0.5,0.83
	c0.1,0.31,0.2,0.72,0.2,1.03c0.1,0.52,0,0.83-0.5,1.03c-0.6,0.21-1.2,0.31-1.8,0.52c-0.9,0.21-1.8,0.52-2.8,0.72
	c-0.9,0.21-1.9,0.31-2.8,0.52c-0.1,0-0.2,0-0.4,0c-0.3,0-0.4,0.1-0.4,0.41c0,0.21,0,0.41,0.3,0.52
	C53.96,38.24,54.76,38.24,55.56,38.24z M53.26,38.34l-0.1,0.1c0.1,0.1,0.2,0.21,0.4,0.21c0.7,0.21,1.4,0.31,2.2,0.52
	c0.2,0,0.3,0,0.3-0.21c0-0.1,0.1-0.31-0.2-0.31C54.86,38.65,54.06,38.65,53.26,38.34z M63.16,27.37
	C63.16,27.37,63.26,27.37,63.16,27.37c0-0.21,0-0.31-0.1-0.41c-0.3-0.31-0.6-0.62-1-0.93c-0.3-0.21-0.6-0.21-1-0.1
	C61.86,26.33,62.76,26.54,63.16,27.37z M58.66,38.75c0-0.31-0.1-0.62-0.3-0.62c-0.2-0.1-0.5,0.1-0.7,0.21v0.1
	C57.96,38.55,58.26,38.65,58.66,38.75z M51.76,41.13C51.76,41.13,51.76,41.24,51.76,41.13c0.5,0.31,1.1,0.62,1.7,0.62
	C52.86,41.55,52.36,41.34,51.76,41.13z"/>
<path class="st0" d="M91.91,30.73c-0.41-0.02-0.71-0.04-1.01-0.06c-1.01-0.06-1.93-0.01-2.95-0.07c-0.61-0.04-1.22-0.07-1.69-0.63
	l-0.1-0.11c-0.6-0.25-0.77-0.78-0.74-1.31l0.01-0.11c-0.46-0.87,0.19-1.57,0.54-2.29c0.11-0.2,0.32-0.3,0.63-0.28
	c0.82-0.06,1.63-0.11,2.36-0.28c0.2,0.01,0.41-0.08,0.72-0.06c0.91,0.05,1.84-0.1,2.66-0.27c1.03-0.15,2.04-0.09,3.06-0.14
	c0.81,0.05,1.72,0.1,2.55-0.06c0.72-0.06,1.32-0.03,2.03,0.01c0.3,0.02,0.51,0.03,0.81,0.05c1.12,0.07,1.3,0.39,1.45,1.35
	c0.07,0.53,0.14,1.06,0.11,1.59c-0.03,0.53-0.06,1.05-0.29,1.46c-0.13,0.52-0.65,0.6-1.17,0.78c-1.03,0.15-2.06,0.41-3.09,0.56
	c-0.61,0.07-0.94,0.37-0.97,1c-0.07,1.26-0.15,2.53-0.22,3.79c-0.01,1.9-0.02,3.8-0.03,5.7c-0.04,0.63-0.27,1.04-0.89,1.22
	c-0.93,0.26-1.75,0.32-2.76,0.15c-0.4-0.13-0.91-0.16-1.31-0.18c-0.51-0.03-0.7-0.25-0.77-0.68c-0.08-0.32-0.07-0.53-0.05-0.85
	c0.07-1.16,0.24-2.31,0.3-3.36c0.06-0.95,0.11-1.9-0.14-2.86c-0.15-0.85,0-1.69,0.14-2.42c0.02-0.32,0.34-0.61,0.47-1.03
	C91.69,31.14,91.79,31.04,91.91,30.73z M101.71,26.77c0.14-0.63-0.23-1.28-0.85-1.11C101.14,26.1,101.43,26.43,101.71,26.77z"/>
<path class="st0" d="M135.89,42.76c-0.3,0-0.7,0-1.1-0.11c-0.6-0.11-0.8-0.44-0.9-1.1c-0.1-0.99-0.2-1.87-0.3-2.87
	c0-0.22-0.1-0.44,0-0.55c0.2-0.88-0.1-1.76-0.1-2.54c0-0.88,0.1-1.87,0.1-2.76c0.1-0.88,0.2-1.76,0.2-2.65c0-0.66,0.1-1.21,0.5-1.76
	c0.1-0.11,0.1-0.33,0.2-0.55c0.1-0.33,0.3-0.66,0.5-0.88c0-0.11,0.1-0.11,0.1-0.22c0-0.44,0.3-0.44,0.6-0.55s0.6-0.33,1-0.44
	c0.8-0.33,1.6-0.44,2.4-0.66c1.6-0.33,3.1-0.77,4.7-1.1c0.8-0.11,1.6-0.22,2.4,0.11c0.3,0.11,0.5,0.33,0.7,0.55
	c0.4,0.77,0.7,1.54,1,2.32c0.1,0.33,0.1,0.66-0.1,0.99c-0.4,0.88-1.2,1.21-2.1,1.32c-0.7,0.11-1.3,0.11-2,0.22
	c-0.4,0.11-0.9,0.22-1.3,0.44c-0.7,0.55-1.6,0.66-2.5,0.77c-0.7,0.11-1,0.44-1.3,0.99c-0.2,0.44-0.1,0.66,0.4,0.55
	c0.6-0.11,1.1-0.22,1.7-0.33c1.1-0.22,2.2-0.55,3.3-0.44c0.7,0,0.9,0.22,1.1,0.88c0.1,0.22,0.2,0.44,0.3,0.66
	c0.4,0.55,0.3,1.1,0.1,1.65c-0.1,0.22-0.3,0.44-0.5,0.55s-0.5,0.22-0.7,0.33c-1,0.33-1.9,0.55-2.9,0.88c-0.5,0.11-1.1,0.22-1.6,0.33
	s-0.9,0.22-1.4,0.33c-0.2,0-0.3,0.22-0.3,0.33c0.1,0.77,0.1,1.54,0.2,2.43c0,0.55,0.1,1.21,0.1,1.76c0,0.77-0.3,0.99-1.1,1.1
	C136.89,42.65,136.39,42.76,135.89,42.76z M138.49,32.73c0.3,0.33,3.4,0,3.9-0.55c-0.1,0-0.2,0-0.3,0c-0.5,0.11-1,0.22-1.4,0.33
	C139.99,32.61,139.29,32.95,138.49,32.73z M145.19,24.23c0.5,0.33,1,0.55,1.5,0.88C146.59,24.45,145.99,24.12,145.19,24.23z
	 M143.49,31.95c0.4,0.22,0.8,0.33,1.2,0.55C144.69,31.95,144.39,31.73,143.49,31.95z"/>
<path class="st0" d="M42.16,42.66c-0.6-0.1-1.3-0.1-1.9-0.21c-0.7-0.21-1.4-0.42-1.9-0.94c-1.5-1.36-1.9-3.03-1.7-4.81
	c0.1-0.94,0.4-1.99,0.6-2.93c0.1-0.63,0.3-1.25,0.4-1.78c0-0.1,0-0.31-0.1-0.42c-1-0.94-0.9-2.2-0.3-3.03
	c0.2-0.31,0.4-0.52,0.7-0.84c0.2-0.21,0.5-0.42,0.8-0.42c1.1,0,2.2-0.31,3.2-0.52c0.4-0.1,0.8-0.31,1.2-0.42
	c1.3-0.52,2.6-0.73,4-0.84c0.3,0,0.5-0.1,0.8-0.1c0.5-0.1,0.9,0.1,1.2,0.42c0.9,0.84,1.3,1.88,1.2,3.03c0,0.31-0.3,0.63-0.7,0.63
	c-0.6,0.1-1.3,0.21-1.9,0.31c-0.5,0.1-0.9,0.21-1.4,0.31c-0.8,0.21-1.5,0.42-2.3,0.63c-0.8,0.1-1.5,0.42-2.2,0.73
	c-0.3,0.21-0.6,0.94-0.4,1.25c0.1,0.1,0.2,0.21,0.4,0.21c0.3,0,0.6,0,0.9-0.1c1.3-0.31,2.6-0.52,3.9-0.52c0.7,0,0.9,0.1,1.2,0.73
	c0.1,0.21,0.2,0.52,0.4,0.73c0.3,0.52,0.3,1.15,0.1,1.78c-0.1,0.42-0.6,0.63-1.1,0.63c-0.7,0.1-1.3,0.21-2,0.21
	c-1.2,0-2.3,0.31-3.4,0.42c-0.7,0.1-1.1,0.31-1.3,0.94c-0.2,0.73-0.2,0.63,0.4,0.84c0.5,0.21,0.9,0.21,1.4,0.1
	c0.6-0.1,1.3-0.21,2-0.31c0.1,0,0.1,0,0.2,0c0.4-0.31,0.7-0.1,1,0.1c0.4,0.31,0.7,0.52,0.8,1.05c0.1,0.63,0.1,1.25-0.2,1.78
	c-0.3,0.52-0.9,0.84-1.4,0.94C43.96,42.55,43.06,42.66,42.16,42.66z M45.66,30.01c1-0.42,2.1-0.52,3.1-0.73
	C47.66,29.38,46.56,29.17,45.66,30.01z M49.16,26.45c-0.3-0.63-1-0.84-1.4-0.63C48.16,26.03,48.66,26.24,49.16,26.45z M47.46,33.25
	c-0.1-0.52-0.6-0.63-1.3-0.42C46.66,32.93,46.96,33.04,47.46,33.25z M44.36,38.89c0.4,0.1,0.8,0.31,1.3,0.42
	C45.36,38.89,44.86,38.79,44.36,38.89z M41.56,31.26v-0.1c-0.1,0-0.3,0-0.4,0c-0.1,0,0,0.21,0,0.31h0.1
	C41.36,31.47,41.46,31.37,41.56,31.26z"/>
<path class="st1" d="M56.36,23.8c-1-0.3-1.9-0.6-2.6-1.2c-0.6-0.4-0.8-1-0.7-1.6c0.4-2.6,1.3-5,2.8-7.2c3-4.6,7.3-8.1,12.9-10.2
	c1.7-0.6,3.5-1.1,5.3-1.3c0.4,0,0.7,0,1.1,0c0.6,0,1.1,0.2,1.4,0.7c0.4,0.7,0.7,1.4,1.1,2c0.2,0.4-0.2,0.3-0.4,0.3
	c-1.8,0-3.5,0.2-5.3,0.6c-3.2,0.8-5.9,2.3-8.4,4.2c-3.8,3-6.3,6.7-7,11.2c-0.1,0.6-0.1,1.3-0.1,2C56.36,23.4,56.36,23.5,56.36,23.8z
	"/>
<path class="st2" d="M86.06,15.8c0,1,0,1.9,0,2.8c0,0.1-0.3,0.2-0.4,0.2c-1.6,0-3.1,0-4.7,0c-0.4,0-0.6,0.1-0.6,0.5
	c0,1.4-0.1,2.8-0.1,4.2c0,0.3-0.1,0.4-0.5,0.4c-0.9,0-1.8,0-2.7,0c-0.4,0-0.5-0.1-0.5-0.5c0-1.4-0.1-2.8-0.1-4.3
	c0-0.4-0.1-0.4-0.5-0.4c-1.8,0-3.5,0-5.3,0c-0.4,0-0.5-0.1-0.5-0.4c0-0.7,0.1-1.5,0-2.3c0-0.3,0.1-0.4,0.4-0.4
	c1.8,0,3.6-0.1,5.4-0.1c0.6,0,0.6,0,0.6-0.6c0-1.3,0-2.6,0-3.9c0-0.5,0-0.5,0.6-0.5c0.8,0,1.6,0.1,2.4,0c0.5,0,0.6,0.1,0.6,0.5
	c0,1.4,0.1,2.7,0.1,4.1c0,0.3,0.1,0.5,0.5,0.5c1.6,0,3.2,0,4.7,0C85.76,15.8,85.86,15.8,86.06,15.8z"/>
<path class="st3" d="M69.66,31.3"/>
<path class="st3" d="M69.96,35.8"/>
<path class="st3" d="M42.56,33.1V33"/>
<path class="st3" d="M43.76,32.7C43.76,32.7,43.76,32.8,43.76,32.7"/>
<path class="st4" d="M77.76,5c0.4-0.8,0.7-1.6,1.4-2.3c0.5-0.5,1.1-0.7,1.9-0.6c2.9,0.3,5.7,1.1,8.2,2.4c5.2,2.7,9.2,6.4,11.5,11.4
	c0.7,1.5,1.2,3.1,1.5,4.7c0,0.3,0,0.7,0,1c0,0.5-0.3,1-0.8,1.2c-0.8,0.3-1.5,0.6-2.3,0.9c-0.4,0.2-0.4-0.1-0.4-0.4
	c0-1.6-0.2-3.1-0.7-4.6c-0.9-2.8-2.6-5.2-4.8-7.3c-3.4-3.4-7.6-5.5-12.7-6.2c-0.7-0.1-1.5-0.1-2.2-0.1C78.16,5.1,78.06,5.1,77.76,5z
	"/>
</svg>
